HIERARCHY
ROOT Hips
{
  OFFSET 0 0 0
  CHANNELS 6 Xposition Yposition Zposition Zrotation Xrotation Yrotation
  JOINT LeftUpLeg
  {
    OFFSET 4.06525 -3.90732 0.41711
    CHANNELS 3 Zrotation Xrotation Yrotation
    JOINT LeftLeg
    {
      OFFSET 0.00023 -18.4821 0.00367
      CHANNELS 3 Zrotation Xrotation Yrotation
      JOINT LeftFoot
      {
        OFFSET -0.00172 -15.2898 -0.02629
        CHANNELS 3 Zrotation Xrotation Yrotation
        JOINT LeftToeBase
        {
          OFFSET 0.36743 -3.19131 5.54287
          CHANNELS 3 Zrotation Xrotation Yrotation
          JOINT LeftToeBase2
          {
            OFFSET 0.08751 0.04849 1.36758
            CHANNELS 3 Zrotation Xrotation Yrotation
            JOINT LeftToeBase3
            {
              OFFSET 0.07484 0.06785 1.16707
            }
          }
        }
      }
    }
  }
  JOINT RightUpLeg
  {
    OFFSET -4.06526 -3.90731 0.41712
    CHANNELS 3 Zrotation Xrotation Yrotation
    JOINT RightLeg
    {
      OFFSET -0.00029 -18.4821 0.0044
      CHANNELS 3 Zrotation Xrotation Yrotation
      JOINT RightFoot
      {
        OFFSET 0.0016 -15.2898 -0.02569
        CHANNELS 3 Zrotation Xrotation Yrotation
        JOINT RightToeBase
        {
          OFFSET -0.3542 -3.19109 5.54386
          CHANNELS 3 Zrotation Xrotation Yrotation
          JOINT RightToeBase2
          {
            OFFSET -0.08424 0.04854 1.36778
            CHANNELS 3 Zrotation Xrotation Yrotation
            JOINT RightToeBase3
            {
              OFFSET -0.07205 0.0679 1.16725
            }
          }
        }
      }
    }
  }
  JOINT Spine
  {
    OFFSET 1e-005 4.46517 -0.10224
    CHANNELS 3 Zrotation Xrotation Yrotation
    JOINT Spine1
    {
      OFFSET 1e-005 4.46212 -0.1824
      CHANNELS 3 Zrotation Xrotation Yrotation
      JOINT Spine2
      {
        OFFSET 0 4.37937 -0.881
        CHANNELS 3 Zrotation Xrotation Yrotation
        JOINT Spine3
        {
          OFFSET 1e-005 4.68286 0.21414
          CHANNELS 3 Zrotation Xrotation Yrotation
          JOINT Neck
          {
            OFFSET 0 1.76964 0.82454
            CHANNELS 3 Zrotation Xrotation Yrotation
            JOINT Head
            {
              OFFSET 0 1.6961 0.93145
              CHANNELS 3 Zrotation Xrotation Yrotation
              JOINT Head_End
              {
                OFFSET 1e-005 7.8375 1.52603
              }
            }
          }
          JOINT LeftShoulder
          {
            OFFSET 1.19381 -0.75881 -0.02768
            CHANNELS 3 Zrotation Xrotation Yrotation
            JOINT LeftArm
            {
              OFFSET 5.18779 -2e-005 1e-005
              CHANNELS 3 Zrotation Xrotation Yrotation
              JOINT LeftForeArm
              {
                OFFSET 12.7364 -4e-005 2e-005
                CHANNELS 3 Zrotation Xrotation Yrotation
                JOINT LeftHand
                {
                  OFFSET 9.21452 -2e-005 1e-005
                  CHANNELS 3 Zrotation Xrotation Yrotation
                }
              }
            }
          }
          JOINT RightShoulder
          {
            OFFSET -1.19381 -0.75881 -0.02767
            CHANNELS 3 Zrotation Xrotation Yrotation
            JOINT RightArm
            {
              OFFSET -5.18779 1e-005 -1e-005
              CHANNELS 3 Zrotation Xrotation Yrotation
              JOINT RightForeArm
              {
                OFFSET -12.7364 3e-005 -2e-005
                CHANNELS 3 Zrotation Xrotation Yrotation
                JOINT RightHand
                {
                  OFFSET -9.21452 2e-005 -1e-005
                  CHANNELS 3 Zrotation Xrotation Yrotation
                }
              }
            }
          }
        }
      }
    }
  }
}
MOTION
Frames: 11
Frame Time: 	0.0166667
8.3984e-009 5.12699 -2.45678e-008 -9.5975 -40.9688 -6.32627 91.0849 -71.2811 82.5417  -80.9441 76.8892 58.2335  5.20334 24.5997 0.385803  7.34628e-009 1.21113e-009 8.03894e-009  -0 0 -0   -68.1311 -69.6724 -59.3838  78.5056 61.4348 -55.5693  -5.19285 21.0541 -0.236732  7.40743e-009 -1.21067e-009 0.000509195  -0 0 -0   8.2608 42.7718 0.915397  0.690514 6.80586 -0.0673169  0.708515 6.80244 -0.0919782  0.726994 6.79875 -0.107731  8.38374e-013 5.08889e-014 -1.92026e-013  3.28069 -19.0298 -0.0379126   -1.088 -1.07767 -0.459653  -35.2729 5.96695 -69.3129  37.5812 31.8181 -56.3061  -6.30608 -0.584115 -10.6128  0.629638 -0.955216 0.272349  15.9395 7.40563 69.0217  -25.0798 21.7173 50.4318  12.5581 0.00503508 4.05415 
-0.00046943 5.12661 0.000361997 -9.59858 -40.9762 -6.32707 91.0652 -71.2702 82.5186  -80.9839 76.8772 58.267  5.21191 24.5997 0.385803  7.34628e-009 1.21113e-009 8.03894e-009  -0 0 -0   -68.1254 -69.6527 -59.3725  78.5406 61.402 -55.5887  -5.2226 21.0584 -0.226625  7.40743e-009 -1.21067e-009 0.000509195  -0 0 -0   8.25815 42.7548 0.906738  0.690514 6.80586 -0.0673169  0.708515 6.80244 -0.0919782  0.726994 6.79875 -0.107731  8.38374e-013 5.08889e-014 -1.92026e-013  3.292 -19.0095 -0.0316739   -1.09435 -1.07767 -0.467217  -35.2157 6.01996 -69.2882  37.5729 31.8832 -56.2594  -6.28528 -0.584078 -10.6322  0.629638 -0.955216 0.272349  15.9536 7.41792 69.0172  -25.1136 21.7691 50.4241  12.541 0.00503513 4.05415 
-0.00131543 5.12619 0.00109942 -9.59505 -40.9855 -6.32791 91.0411 -71.2524 82.4888  -81.037 76.8555 58.3099  5.22842 24.5997 0.379709  7.34628e-009 1.21113e-009 8.03894e-009  -0 0 -0   -68.1214 -69.6225 -59.3597  78.5964 61.35 -55.619  -5.26882 21.065 -0.210957  7.40743e-009 -1.21067e-009 0.000509195  -0 0 -0   8.25303 42.7318 0.894073  0.687026 6.80586 -0.0673169  0.705108 6.80244 -0.0919782  0.723679 6.79875 -0.107731  8.38374e-013 5.08889e-014 -1.92026e-013  3.31126 -18.9784 -0.021122   -1.10316 -1.07767 -0.476595  -35.1324 6.09956 -69.2521  37.5703 31.9822 -56.1982  -6.25883 -0.588249 -10.6623  0.632908 -0.955215 0.275859  15.9826 7.43568 69.0092  -25.1746 21.8514 50.4209  12.5168 0.00503508 4.0576 
-0.00317245 5.12573 0.00287792 -9.58933 -40.999 -6.32918 91.0107 -71.2174 82.447  -81.1462 76.8128 58.3979  5.26167 24.6015 0.367475  7.34628e-009 1.21113e-009 8.03894e-009  -0 0 -0   -68.1232 -69.5641 -59.344  78.7073 61.2456 -55.6786  -5.3587 21.078 -0.1805  7.40743e-009 -1.21067e-009 0.000509195  -0 0 -0   8.23947 42.6906 0.874431  0.68116 6.80586 -0.0710184  0.698977 6.80244 -0.0919782  0.718226 6.79875 -0.111882  8.38374e-013 5.08889e-014 -1.92026e-013  3.35196 -18.906 -0.00287558   -1.11933 -1.08329 -0.492133  -34.9812 6.25571 -69.1862  37.5787 32.1765 -56.0917  -6.21337 -0.596095 -10.7255  0.638997 -0.955215 0.280301  16.0504 7.47196 68.987  -25.3055 22.0167 50.4254  12.4716 0.00503497 4.07422 
-0.00564312 5.12512 0.00519594 -9.57777 -41.0182 -6.33095 90.9619 -71.1681 82.3826  -81.2923 76.7522 58.5158  5.30612 24.6028 0.351089  7.34628e-009 1.21113e-009 8.03894e-009  -0 0 -0   -68.125 -69.489 -59.3228  78.8518 61.1113 -55.7539  -5.47659 21.0953 -0.140588  7.40743e-009 -1.21067e-009 0.000509195  -0 0 -0   8.22554 42.6442 0.840634  0.671079 6.81046 -0.0749596  0.689151 6.80695 -0.0967368  0.708635 6.80317 -0.117064  8.38374e-013 5.08889e-014 -1.92026e-013  3.4054 -18.8402 0.0299602   -1.13808 -1.08938 -0.508103  -34.7837 6.44593 -69.1021  37.604 32.4175 -55.9752  -6.16249 -0.605052 -10.7978  0.645297 -0.955215 0.282672  16.1434 7.50943 68.9685  -25.4879 22.2307 50.4481  12.4185 0.00308348 4.08257 
-0.0086174 5.12414 0.00763438 -9.55341 -41.0476 -6.33359 90.8722 -71.101 82.2725  -81.4691 76.6703 58.6585  5.3596 24.6038 0.331271  7.34628e-009 1.21113e-009 8.03894e-009  -0 0 -0   -68.1184 -69.4043 -59.29  79.0187 60.961 -55.8355  -5.61622 21.1174 -0.0934002  7.40743e-009 -1.21067e-009 0.000509195  -0 0 -0   8.21945 42.6041 0.777676  0.652561 6.82536 -0.0791518  0.67068 6.82176 -0.101416  0.690314 6.81788 -0.12263  8.38374e-013 5.08889e-014 -1.92026e-013  3.47079 -18.8341 0.0951041   -1.15573 -1.0943 -0.518907  -34.5421 6.63888 -69.002  37.6559 32.6725 -55.8779  -6.11812 -0.612768 -10.8586  0.649295 -0.955215 0.277898  16.2564 7.53093 68.9765  -25.7193 22.4754 50.5032  12.3663 0.00106391 4.0581 
-0.0118683 5.12315 0.0106054 -9.52614 -41.0802 -6.33649 90.7723 -71.0255 82.1494  -81.6711 76.5751 58.8216  5.4222 24.6045 0.308054  7.34628e-009 1.21113e-009 8.03894e-009  -0 0 -0   -68.1154 -69.3049 -59.2562  79.2114 60.7876 -55.9286  -5.77656 21.1411 -0.0391526  7.40743e-009 -1.21067e-009 0.000509195  -0 0 -0   8.21471 42.5633 0.706199  0.632612 6.84289 -0.0838533  0.650874 6.83918 -0.107091  0.670714 6.83518 -0.129288  8.38374e-013 5.08889e-014 -1.92026e-013  3.53803 -18.8407 0.164153   -1.17415 -1.09905 -0.528357  -34.2712 6.85128 -68.8944  37.7305 32.9545 -55.7886  -6.07245 -0.620708 -10.9202  0.65274 -0.955216 0.268871  16.3886 7.54944 68.9849  -25.9955 22.7533 50.583  12.3127 -0.00102138 4.02065 
-0.0150233 5.12256 0.0145478 -9.50603 -41.1094 -6.33919 90.6905 -70.9515 82.0438  -81.8933 76.4746 59.0019  5.49407 24.6053 0.281405  7.34628e-009 1.21113e-009 8.03894e-009  -0 0 -0   -68.1285 -69.1853 -59.2325  79.4327 60.5848 -56.037  -5.956 21.163 0.0216651  7.40743e-009 -1.21067e-009 0.000509195  -0 0 -0   8.20715 42.5177 0.645029  0.618751 6.8563 -0.0911471  0.637383 6.85242 -0.115109  0.65764 6.84824 -0.138024  8.38374e-013 5.08889e-014 -1.92026e-013  3.59208 -18.8234 0.207771   -1.19466 -1.10442 -0.539166  -33.9866 7.09644 -68.7878  37.8251 33.2707 -55.7011  -6.01897 -0.629927 -10.9898  0.655995 -0.955217 0.25649  16.5385 7.57385 68.9713  -26.3149 23.0644 50.6857  12.259 -0.00288506 3.98361 
-0.0184024 5.12205 0.0189511 -9.48689 -41.139 -6.34188 90.6085 -70.8741 81.9368  -82.1291 76.366 59.1923  5.57275 24.6063 0.25223  7.34628e-009 1.21113e-009 8.03894e-009  -0 0 -0   -68.1476 -69.0536 -59.2111  79.6722 60.364 -56.1541  -6.15004 21.1835 0.0875415  7.40743e-009 -1.21067e-009 0.000509195  -0 0 -0   8.19814 42.4699 0.584511  0.605639 6.8696 -0.0991277  0.624704 6.86552 -0.123791  0.645439 6.86114 -0.147397  8.38374e-013 5.08889e-014 -1.92026e-013  3.64683 -18.8033 0.245943   -1.21516 -1.10958 -0.549098  -33.6877 7.35201 -68.6842  37.9446 33.606 -55.6293  -5.96577 -0.639337 -11.062  0.659292 -0.955218 0.241704  16.7047 7.59863 68.9471  -26.6674 23.3991 50.808  12.2039 -0.00423981 3.94173 
-0.0222772 5.12145 0.0234714 -9.46538 -41.1714 -6.34487 90.5163 -70.7916 81.8179  -82.3705 76.2489 59.385  5.65567 24.6077 0.221493  7.34628e-009 1.21113e-009 8.03894e-009  -0 0 -0   -68.1671 -68.9149 -59.188  79.9231 60.1334 -56.2772  -6.35561 21.2018 0.15746  7.40743e-009 -1.21067e-009 0.000509195  -0 0 -0   8.18775 42.4205 0.519771  0.589991 6.88482 -0.106414  0.609437 6.88056 -0.131883  0.630606 6.87598 -0.15629  8.38374e-013 5.08889e-014 -1.92026e-013  3.71272 -18.7896 0.290894   -1.23423 -1.11409 -0.556892  -33.3755 7.60211 -68.5869  38.0913 33.9503 -55.5815  -5.91688 -0.648489 -11.1359  0.662599 -0.955219 0.225909  16.886 7.62151 68.9171  -27.0434 23.7493 50.9456  12.1453 -0.00518958 3.8941 
-0.026425 5.12083 0.0280605 -9.44254 -41.2052 -6.34806 90.4189 -70.7045 81.6923  -82.6176 76.124 59.5803  5.7434 24.6097 0.188978  7.34628e-009 1.21113e-009 8.03894e-009  -0 0 -0   -68.1868 -68.7722 -59.1639  80.1789 59.8972 -56.401  -6.56684 21.2181 0.229373  7.40743e-009 -1.21067e-009 0.000509195  -0 0 -0   8.17575 42.371 0.455287  0.573111 6.90112 -0.113105  0.592921 6.89666 -0.139429  0.614508 6.89187 -0.164689  8.38374e-013 5.08889e-014 -1.92026e-013  3.78506 -18.7812 0.336696   -1.25123 -1.11781 -0.562217  -33.0595 7.83979 -68.4982  38.2706 34.2947 -55.5681  -5.8779 -0.656404 -11.2044  0.665739 -0.95522 0.208691  17.0798 7.64169 68.8797  -27.4391 24.1094 51.0986  12.087 -0.00603373 3.84102 
